<svg xmlns="http://www.w3.org/2000/svg" version="1.1" xmlns:xlink="http://www.w3.org/1999/xlink" xmlns:svgjs="http://svgjs.dev/svgjs" width="1500" height="234" viewBox="0 0 1500 234"><g transform="matrix(1,0,0,1,-0.9090909090909918,-0.0686132652674587)"><svg viewBox="0 0 396 62" data-background-color="#dedede" preserveAspectRatio="xMidYMid meet" height="234" width="1500" xmlns="http://www.w3.org/2000/svg" xmlns:xlink="http://www.w3.org/1999/xlink"><g id="tight-bounds" transform="matrix(1,0,0,1,0.2400000000000091,0.01817958310505219)"><svg viewBox="0 0 395.52 61.96364083378988" height="61.96364083378988" width="395.52"><g><svg viewBox="0 0 511.02326030898547 80.05881310552763" height="61.96364083378988" width="395.52"><g><rect width="7.183867051295132" height="80.05881310552763" x="89.51345856843609" y="0" fill="#2a2a2a" opacity="1" stroke-width="0" stroke="transparent" fill-opacity="1" class="rect-yte-0" data-fill-palette-color="primary" rx="1%" id="yte-0" data-palette-color="#2a2a2a"></rect></g><g transform="matrix(1,0,0,1,115.5032603089855,0.19915127638190455)"><svg viewBox="0 0 395.52 79.66051055276382" height="79.66051055276382" width="395.52"><g id="textblocktransform"><svg viewBox="0 0 395.52 79.66051055276382" height="79.66051055276382" width="395.52" id="textblock"><g><svg viewBox="0 0 395.52 79.66051055276382" height="79.66051055276382" width="395.52"><g transform="matrix(1,0,0,1,0,0)"><svg width="395.52" viewBox="2.45 -38.6 248.73000000000002 50.1" height="79.66051055276382" data-palette-color="#2a2a2a"><path d="M42.15-34.9L42.15-32.75 37.15-31.6 37.8-32.7 37.8-2.3 37.15-3.2 42.15-2.15 42.15 0 29.7 0 29.7-2.15 34.8-3.2 34-2.3 34-30.35 34.65-30.3 23.3-9.1 20.55-8.9 9.55-30.4 10.15-30.45 10.15-2.3 9.55-3.15 14.5-2.15 14.5 0 2.45 0 2.45-2.15 7.45-3.2 6.75-2.3 6.75-32.7 7.45-31.6 2.45-32.5 2.45-34.65 11.8-34.9 22.65-12.95 22.05-12.95 33.25-34.65 42.15-34.9ZM58.35 0.45L58.35 0.45Q55 0.45 52.42-1.07 49.85-2.6 48.4-5.55 46.95-8.5 46.95-12.75L46.95-12.75Q46.95-17.1 48.45-20.25 49.95-23.4 52.7-25.13 55.45-26.85 59.15-26.85L59.15-26.85Q62.65-26.85 64.92-25.38 67.2-23.9 68.32-21.3 69.45-18.7 69.45-15.35L69.45-15.35Q69.45-14.8 69.4-14.25 69.35-13.7 69.25-12.9L69.25-12.9 50-12.9 50-15.75 65.75-15.75 65.3-15.45Q65.35-17.7 64.75-19.6 64.15-21.5 62.7-22.65 61.25-23.8 58.85-23.8L58.85-23.8Q56.3-23.8 54.55-22.45 52.8-21.1 51.95-18.75 51.1-16.4 51.1-13.3L51.1-13.3Q51.1-10 52.05-7.63 53-5.25 54.82-3.95 56.65-2.65 59.3-2.65L59.3-2.65Q61.15-2.65 63.35-3.38 65.55-4.1 67.9-5.6L67.9-5.6 69.35-3.35Q66.55-1.45 63.75-0.5 60.95 0.45 58.35 0.45ZM84.15 0.45L84.15 0.45Q81.4 0.45 79.15-1.07 76.9-2.6 75.6-5.58 74.3-8.55 74.3-12.8L74.3-12.8Q74.3-19.75 77.85-23.3 81.4-26.85 87.6-26.85L87.6-26.85Q88.9-26.85 90.32-26.65 91.75-26.45 93.25-26.05L93.25-26.05 92.45-25.6 92.45-35.65 92.9-35.1 88.3-36.1 88.3-38.25 96.45-38.6 96.45-2.45 95.85-3.15 100.35-2.25 100.35-0.05 93.35 0.25 92.75-4.05 93.25-3.85Q91-1.7 88.72-0.63 86.45 0.45 84.15 0.45ZM85.55-2.6L85.55-2.6Q87.3-2.6 89.17-3.53 91.05-4.45 92.95-6.3L92.95-6.3 92.45-4.95 92.45-23.9 93-22.9Q89.95-23.9 87.45-23.9L87.45-23.9Q83.05-23.9 80.75-21.05 78.45-18.2 78.45-13.15L78.45-13.15Q78.45-9.85 79.37-7.48 80.3-5.1 81.92-3.85 83.55-2.6 85.55-2.6ZM111.34-26.55L111.34-2.55 110.89-3.1 115.24-2.15 115.24 0 103.44 0 103.44-2.15 107.79-3.1 107.34-2.55 107.34-23.65 107.74-23.2 103.44-24.1 103.44-26.25 111.34-26.55ZM109.04-31.95L109.04-31.95Q107.89-31.95 107.14-32.7 106.39-33.45 106.39-34.75L106.39-34.75Q106.39-36.1 107.17-36.83 107.94-37.55 109.09-37.55L109.09-37.55Q110.29-37.55 111.04-36.85 111.79-36.15 111.79-34.75L111.79-34.75Q111.79-33.4 110.99-32.68 110.19-31.95 109.04-31.95ZM133.94 0.45L133.94 0.45Q129.94 0.45 126.64-1.6 123.34-3.65 121.42-7.6 119.49-11.55 119.49-17.3L119.49-17.3Q119.49-22.95 121.44-27 123.39-31.05 126.89-33.2 130.39-35.35 135.04-35.35L135.04-35.35Q137.54-35.35 140.24-34.75 142.94-34.15 145.84-32.85L145.84-32.85 145.49-25 143.04-25 142.14-31.2 142.89-30.4Q140.89-31.25 138.87-31.68 136.84-32.1 135.09-32.1L135.09-32.1Q131.64-32.1 129.14-30.38 126.64-28.65 125.27-25.45 123.89-22.25 123.89-17.8L123.89-17.8Q123.89-13 125.34-9.7 126.79-6.4 129.32-4.67 131.84-2.95 134.99-2.95L134.99-2.95Q137.29-2.95 139.82-3.95 142.34-4.95 144.69-7L144.69-7 146.34-4.55Q143.39-2 140.19-0.78 136.99 0.45 133.94 0.45ZM171.19-19.4L171.19-2.25 170.54-3.15 175.14-2.25 175.14-0.05 168.14 0.25 167.54-4.55 167.89-4.4Q165.69-2 163.14-0.78 160.59 0.45 158.19 0.45L158.19 0.45Q155.29 0.45 153.29-1.4 151.29-3.25 151.29-7L151.29-7Q151.29-9.95 152.54-11.53 153.79-13.1 155.99-13.75 158.19-14.4 161.09-14.4L161.09-14.4 167.64-14.4 167.19-13.9 167.19-18.7Q167.19-21.45 165.74-22.63 164.29-23.8 161.74-23.8L161.74-23.8Q160.39-23.8 158.86-23.53 157.34-23.25 155.64-22.65L155.64-22.65 156.24-23.3 155.74-18.75 153.09-18.75 152.69-24.95Q155.54-25.9 158.04-26.38 160.54-26.85 162.64-26.85L162.64-26.85Q166.64-26.85 168.91-25.08 171.19-23.3 171.19-19.4L171.19-19.4ZM155.34-7.35L155.34-7.35Q155.34-4.9 156.51-3.75 157.69-2.6 159.49-2.6L159.49-2.6Q161.24-2.6 163.36-3.68 165.49-4.75 167.49-6.6L167.49-6.6 167.19-5.55 167.19-12.25 167.64-11.8 161.69-11.8Q158.14-11.8 156.74-10.73 155.34-9.65 155.34-7.35ZM202.04-21.85L202.04-21.85 201.49-21.75Q203.94-24.3 206.69-25.58 209.44-26.85 211.84-26.85L211.84-26.85Q214.89-26.85 216.96-24.83 219.04-22.8 219.04-18.6L219.04-18.6 219.04-2.4 218.54-3.1 222.94-2.15 222.94 0 211.34 0 211.34-2.15 215.59-3.1 215.04-2.35 215.04-17.7Q215.04-20.8 213.71-22.25 212.39-23.7 210.29-23.7L210.29-23.7Q208.49-23.7 206.31-22.65 204.14-21.6 202.04-19.45L202.04-19.45 202.39-20.4Q202.44-19.95 202.46-19.55 202.49-19.15 202.49-18.75L202.49-18.75 202.49-2.4 201.99-3.1 206.14-2.15 206.14 0 194.84 0 194.84-2.15 199.09-3.1 198.49-2.35 198.49-17.7Q198.49-20.8 197.16-22.25 195.84-23.7 193.74-23.7L193.74-23.7Q191.94-23.7 189.79-22.7 187.64-21.7 185.54-19.6L185.54-19.6 185.89-20.35 185.89-2.35 185.39-3.05 189.54-2.15 189.54 0 177.99 0 177.99-2.15 182.49-3.15 181.89-2.4 181.89-23.9 182.49-23.15 177.99-24.1 177.99-26.25 184.99-26.6 185.54-21.7 184.99-21.9Q187.44-24.45 190.16-25.65 192.89-26.85 195.34-26.85L195.34-26.85Q197.64-26.85 199.44-25.63 201.24-24.4 202.04-21.85ZM237.63 11.5L225.13 11.5 225.13 9.35 229.68 8.3 229.03 9.05 229.03-23.8 229.63-23.15 225.13-24.1 225.13-26.25 232.13-26.6 232.63-22.25 232.18-22.55Q234.48-24.7 236.78-25.78 239.08-26.85 241.33-26.85L241.33-26.85Q244.13-26.85 246.36-25.3 248.58-23.75 249.88-20.83 251.18-17.9 251.18-13.65L251.18-13.65Q251.18-9.05 249.61-5.9 248.03-2.75 245.18-1.13 242.33 0.5 238.48 0.5L238.48 0.5Q237.08 0.5 235.58 0.25 234.08 0 232.43-0.4L232.43-0.4 233.03-0.95 233.03 9.05 232.48 8.35 237.63 9.35 237.63 11.5ZM238.03-2.5L238.03-2.5Q242.43-2.5 244.73-5.35 247.03-8.2 247.03-13.25L247.03-13.25Q247.03-16.55 246.11-18.9 245.18-21.25 243.58-22.53 241.98-23.8 239.93-23.8L239.93-23.8Q238.18-23.8 236.31-22.88 234.43-21.95 232.53-20.05L232.53-20.05 233.03-21.3 233.03-2.55 232.48-3.45Q235.53-2.5 238.03-2.5Z" opacity="1" transform="matrix(1,0,0,1,0,0)" fill="#ffffff" class="wordmark-text-0" data-fill-palette-color="primary" id="text-0"></path></svg></g></svg></g></svg></g></svg></g><g transform="matrix(1,0,0,1,0,0.19915127638190455)"><svg viewBox="0 0 70.70752387918182 79.66051055276382" height="79.66051055276382" width="70.70752387918182"><g><svg xmlns="http://www.w3.org/2000/svg" xmlns:xlink="http://www.w3.org/1999/xlink" version="1.1" x="0" y="0" viewBox="0 0 100 112.662" enable-background="new 0 0 100 112.662" xml:space="preserve" id="icon-0" width="70.70752387918182" height="79.66051055276382" class="icon-icon-0" data-fill-palette-color="accent"><g fill="#070707" data-fill-palette-color="accent"><path d="M72.528 51.2A31.6 31.6 0 0 1 81.019 67.018C84.839 67.337 87.841 70.534 87.841 74.435A7.449 7.449 0 1 1 72.943 74.435C72.943 70.962 75.323 68.054 78.539 67.229 76.874 59.454 72.179 52.684 65.763 48.4 65.7 48.379 65.639 48.356 65.576 48.336L49.524 76.782 34.306 48.373C33.125 48.761 31.963 49.193 30.823 49.665 24.608 54.679 21.111 62.516 20.822 72.157 27.133 72.709 32.14 80.512 32.14 90.086L29.806 92.07A1.944 1.944 0 1 1 28.176 91.183C28.551 91.183 28.899 91.294 29.197 91.479L31.202 90.086C31.202 80.93 26.237 73.507 20.112 73.507S9.022 80.93 9.022 90.086L10.857 91.36C11.102 91.249 11.373 91.182 11.66 91.182A1.944 1.944 0 1 1 9.715 93.126C9.715 92.646 9.896 92.211 10.185 91.872L8.083 90.085C8.083 81.048 12.546 73.591 18.354 72.315 18.647 64.089 21.071 56.662 26.479 51.194 11.451 58.743 1.731 73.601 0 91.108 9.946 106.479 28.612 112.662 50 112.662 71.387 112.662 90.054 106.479 100 91.109 98.269 73.603 87.551 58.749 72.528 51.2M70.412 92.21H65.427V97.194H61.178V92.21H56.193V87.961H61.178V82.976H65.427V87.961H70.412z" fill="#070707" data-fill-palette-color="accent"></path><path d="M81.441 69.662A5 5 0 0 0 80.392 69.543C79.893 69.543 79.42 69.64 78.966 69.778 76.964 70.391 75.498 72.232 75.498 74.435A4.895 4.895 0 1 0 85.285 74.435 4.89 4.89 0 0 0 81.441 69.662" fill="#070707" data-fill-palette-color="accent"></path><path d="M50 0C36.652 0 25.832 10.82 25.832 24.167 25.832 32.744 30.304 40.271 37.039 44.561 37.514 44.863 37.996 45.155 38.492 45.424A24.1 24.1 0 0 0 50.001 48.335 24.06 24.06 0 0 0 62.962 44.56C69.696 40.271 74.168 32.743 74.168 24.166 74.167 10.82 63.347 0 50 0" fill="#070707" data-fill-palette-color="accent"></path></g></svg></g></svg></g></svg></g><defs></defs></svg><rect width="395.52" height="61.96364083378988" fill="none" stroke="none" visibility="hidden"></rect></g></svg></g></svg>