<svg xmlns="http://www.w3.org/2000/svg" version="1.1" xmlns:xlink="http://www.w3.org/1999/xlink" xmlns:svgjs="http://svgjs.dev/svgjs" width="1440" height="560" preserveAspectRatio="none" viewBox="0 0 1440 560">
    <g mask="url(&quot;#SvgjsMask1008&quot;)" fill="none">
        <rect width="1440" height="560" x="0" y="0" fill="rgba(23, 37, 84, 1)"></rect>
        <path d="M-63.76 347.27L-63.76 347.27" stroke="#132e65" stroke-width="1.5"></path>
        <path d="M-63.76 347.27L72.45 409.49" stroke="#132e65" stroke-width="1.5"></path>
        <path d="M-63.76 347.27L-53.8 535.35" stroke="#132e65" stroke-width="1.5"></path>
        <path d="M-63.76 347.27L107.35 541.42" stroke="#132e65" stroke-width="1.5"></path>
        <path d="M-63.76 347.27L-106.12 663.9" stroke="#132e65" stroke-width="1.5"></path>
        <path d="M-63.76 347.27L253.88 407.04" stroke="#132e65" stroke-width="1.5"></path>
        <path d="M-53.8 535.35L-53.8 535.35" stroke="#132e65" stroke-width="1.5"></path>
        <path d="M-53.8 535.35L-106.12 663.9" stroke="#132e65" stroke-width="1.5"></path>
        <path d="M-53.8 535.35L107.35 541.42" stroke="#132e65" stroke-width="1.5"></path>
        <path d="M-53.8 535.35L72.45 409.49" stroke="#132e65" stroke-width="1.5"></path>
        <path d="M-106.12 663.9L-106.12 663.9" stroke="#132e65" stroke-width="1.5"></path>
        <path d="M-106.12 663.9L90.58 658.95" stroke="#132e65" stroke-width="1.5"></path>
        <path d="M72.45 409.49L72.45 409.49" stroke="#132e65" stroke-width="1.5"></path>
        <path d="M72.45 409.49L107.35 541.42" stroke="#132e65" stroke-width="1.5"></path>
        <path d="M107.35 541.42L107.35 541.42" stroke="#132e65" stroke-width="1.5"></path>
        <path d="M107.35 541.42L90.58 658.95" stroke="#132e65" stroke-width="1.5"></path>
        <path d="M107.35 541.42L261.92 506.95" stroke="#132e65" stroke-width="1.5"></path>
        <path d="M107.35 541.42L253.88 407.04" stroke="#132e65" stroke-width="1.5"></path>
        <path d="M107.35 541.42L-106.12 663.9" stroke="#132e65" stroke-width="1.5"></path>
        <path d="M90.58 658.95L90.58 658.95" stroke="#132e65" stroke-width="1.5"></path>
        <path d="M90.58 658.95L-53.8 535.35" stroke="#132e65" stroke-width="1.5"></path>
        <path d="M90.58 658.95L261.92 506.95" stroke="#132e65" stroke-width="1.5"></path>
        <path d="M90.58 658.95L72.45 409.49" stroke="#132e65" stroke-width="1.5"></path>
        <path d="M253.88 407.04L253.88 407.04" stroke="#132e65" stroke-width="1.5"></path>
        <path d="M253.88 407.04L261.92 506.95" stroke="#132e65" stroke-width="1.5"></path>
        <path d="M253.88 407.04L375.27 401.46" stroke="#132e65" stroke-width="1.5"></path>
        <path d="M253.88 407.04L399.13 508.61" stroke="#132e65" stroke-width="1.5"></path>
        <path d="M253.88 407.04L72.45 409.49" stroke="#132e65" stroke-width="1.5"></path>
        <path d="M253.88 407.04L501.69 531.58" stroke="#132e65" stroke-width="1.5"></path>
        <path d="M261.92 506.95L261.92 506.95" stroke="#132e65" stroke-width="1.5"></path>
        <path d="M261.92 506.95L399.13 508.61" stroke="#132e65" stroke-width="1.5"></path>
        <path d="M261.92 506.95L375.27 401.46" stroke="#132e65" stroke-width="1.5"></path>
        <path d="M375.27 401.46L375.27 401.46" stroke="#132e65" stroke-width="1.5"></path>
        <path d="M375.27 401.46L399.13 508.61" stroke="#132e65" stroke-width="1.5"></path>
        <path d="M375.27 401.46L543.46 343.14" stroke="#132e65" stroke-width="1.5"></path>
        <path d="M375.27 401.46L501.69 531.58" stroke="#132e65" stroke-width="1.5"></path>
        <path d="M375.27 401.46L383.73 702.44" stroke="#132e65" stroke-width="1.5"></path>
        <path d="M399.13 508.61L399.13 508.61" stroke="#132e65" stroke-width="1.5"></path>
        <path d="M399.13 508.61L501.69 531.58" stroke="#132e65" stroke-width="1.5"></path>
        <path d="M399.13 508.61L383.73 702.44" stroke="#132e65" stroke-width="1.5"></path>
        <path d="M399.13 508.61L501.97 688.07" stroke="#132e65" stroke-width="1.5"></path>
        <path d="M383.73 702.44L383.73 702.44" stroke="#132e65" stroke-width="1.5"></path>
        <path d="M383.73 702.44L501.97 688.07" stroke="#132e65" stroke-width="1.5"></path>
        <path d="M543.46 343.14L543.46 343.14" stroke="#132e65" stroke-width="1.5"></path>
        <path d="M543.46 343.14L694.69 374.29" stroke="#132e65" stroke-width="1.5"></path>
        <path d="M543.46 343.14L667.86 238.43" stroke="#132e65" stroke-width="1.5"></path>
        <path d="M501.69 531.58L501.69 531.58" stroke="#132e65" stroke-width="1.5"></path>
        <path d="M501.69 531.58L501.97 688.07" stroke="#132e65" stroke-width="1.5"></path>
        <path d="M501.69 531.58L667.13 554.04" stroke="#132e65" stroke-width="1.5"></path>
        <path d="M501.69 531.58L543.46 343.14" stroke="#132e65" stroke-width="1.5"></path>
        <path d="M501.97 688.07L501.97 688.07" stroke="#132e65" stroke-width="1.5"></path>
        <path d="M667.86 238.43L667.86 238.43" stroke="#132e65" stroke-width="1.5"></path>
        <path d="M667.86 238.43L694.69 374.29" stroke="#132e65" stroke-width="1.5"></path>
        <path d="M667.86 238.43L830.18 223.7" stroke="#132e65" stroke-width="1.5"></path>
        <path d="M667.86 238.43L800.14 346.84" stroke="#132e65" stroke-width="1.5"></path>
        <path d="M667.86 238.43L667.13 554.04" stroke="#132e65" stroke-width="1.5"></path>
        <path d="M694.69 374.29L694.69 374.29" stroke="#132e65" stroke-width="1.5"></path>
        <path d="M694.69 374.29L800.14 346.84" stroke="#132e65" stroke-width="1.5"></path>
        <path d="M667.13 554.04L667.13 554.04" stroke="#132e65" stroke-width="1.5"></path>
        <path d="M667.13 554.04L697.6 646.6" stroke="#132e65" stroke-width="1.5"></path>
        <path d="M697.6 646.6L697.6 646.6" stroke="#132e65" stroke-width="1.5"></path>
        <path d="M697.6 646.6L810 684.21" stroke="#132e65" stroke-width="1.5"></path>
        <path d="M697.6 646.6L830.12 544.38" stroke="#132e65" stroke-width="1.5"></path>
        <path d="M697.6 646.6L501.97 688.07" stroke="#132e65" stroke-width="1.5"></path>
        <path d="M697.6 646.6L501.69 531.58" stroke="#132e65" stroke-width="1.5"></path>
        <path d="M697.6 646.6L694.69 374.29" stroke="#132e65" stroke-width="1.5"></path>
        <path d="M830.18 223.7L830.18 223.7" stroke="#132e65" stroke-width="1.5"></path>
        <path d="M830.18 223.7L800.14 346.84" stroke="#132e65" stroke-width="1.5"></path>
        <path d="M800.14 346.84L800.14 346.84" stroke="#132e65" stroke-width="1.5"></path>
        <path d="M830.12 544.38L830.12 544.38" stroke="#132e65" stroke-width="1.5"></path>
        <path d="M830.12 544.38L946.78 528.4" stroke="#132e65" stroke-width="1.5"></path>
        <path d="M830.12 544.38L810 684.21" stroke="#132e65" stroke-width="1.5"></path>
        <path d="M830.12 544.38L667.13 554.04" stroke="#132e65" stroke-width="1.5"></path>
        <path d="M810 684.21L810 684.21" stroke="#132e65" stroke-width="1.5"></path>
        <path d="M810 684.21L990.63 701.81" stroke="#132e65" stroke-width="1.5"></path>
        <path d="M810 684.21L667.13 554.04" stroke="#132e65" stroke-width="1.5"></path>
        <path d="M956.64 -60.44L956.64 -60.44" stroke="#132e65" stroke-width="1.5"></path>
        <path d="M956.64 -60.44L991.73 83.46" stroke="#132e65" stroke-width="1.5"></path>
        <path d="M956.64 -60.44L1108.23 55.3" stroke="#132e65" stroke-width="1.5"></path>
        <path d="M991.73 83.46L991.73 83.46" stroke="#132e65" stroke-width="1.5"></path>
        <path d="M991.73 83.46L1108.23 55.3" stroke="#132e65" stroke-width="1.5"></path>
        <path d="M1011.19 256.62L1011.19 256.62" stroke="#132e65" stroke-width="1.5"></path>
        <path d="M1011.19 256.62L1107.76 227.73" stroke="#132e65" stroke-width="1.5"></path>
        <path d="M1011.19 256.62L981.28 372.4" stroke="#132e65" stroke-width="1.5"></path>
        <path d="M1011.19 256.62L1127.39 338.49" stroke="#132e65" stroke-width="1.5"></path>
        <path d="M1011.19 256.62L991.73 83.46" stroke="#132e65" stroke-width="1.5"></path>
        <path d="M1011.19 256.62L830.18 223.7" stroke="#132e65" stroke-width="1.5"></path>
        <path d="M981.28 372.4L981.28 372.4" stroke="#132e65" stroke-width="1.5"></path>
        <path d="M981.28 372.4L1127.39 338.49" stroke="#132e65" stroke-width="1.5"></path>
        <path d="M981.28 372.4L946.78 528.4" stroke="#132e65" stroke-width="1.5"></path>
        <path d="M981.28 372.4L1102.9 493.72" stroke="#132e65" stroke-width="1.5"></path>
        <path d="M981.28 372.4L800.14 346.84" stroke="#132e65" stroke-width="1.5"></path>
        <path d="M946.78 528.4L946.78 528.4" stroke="#132e65" stroke-width="1.5"></path>
        <path d="M946.78 528.4L1102.9 493.72" stroke="#132e65" stroke-width="1.5"></path>
        <path d="M990.63 701.81L990.63 701.81" stroke="#132e65" stroke-width="1.5"></path>
        <path d="M990.63 701.81L946.78 528.4" stroke="#132e65" stroke-width="1.5"></path>
        <path d="M990.63 701.81L830.12 544.38" stroke="#132e65" stroke-width="1.5"></path>
        <path d="M990.63 701.81L1102.9 493.72" stroke="#132e65" stroke-width="1.5"></path>
        <path d="M990.63 701.81L1252.96 707.59" stroke="#132e65" stroke-width="1.5"></path>
        <path d="M990.63 701.81L697.6 646.6" stroke="#132e65" stroke-width="1.5"></path>
        <path d="M1150.5 -89.77L1150.5 -89.77" stroke="#132e65" stroke-width="1.5"></path>
        <path d="M1150.5 -89.77L1256.28 -73.53" stroke="#132e65" stroke-width="1.5"></path>
        <path d="M1150.5 -89.77L1108.23 55.3" stroke="#132e65" stroke-width="1.5"></path>
        <path d="M1150.5 -89.77L956.64 -60.44" stroke="#132e65" stroke-width="1.5"></path>
        <path d="M1150.5 -89.77L1267.2 105.35" stroke="#132e65" stroke-width="1.5"></path>
        <path d="M1150.5 -89.77L991.73 83.46" stroke="#132e65" stroke-width="1.5"></path>
        <path d="M1150.5 -89.77L1450.86 -82.93" stroke="#132e65" stroke-width="1.5"></path>
        <path d="M1108.23 55.3L1108.23 55.3" stroke="#132e65" stroke-width="1.5"></path>
        <path d="M1108.23 55.3L1267.2 105.35" stroke="#132e65" stroke-width="1.5"></path>
        <path d="M1108.23 55.3L1107.76 227.73" stroke="#132e65" stroke-width="1.5"></path>
        <path d="M1107.76 227.73L1107.76 227.73" stroke="#132e65" stroke-width="1.5"></path>
        <path d="M1107.76 227.73L1127.39 338.49" stroke="#132e65" stroke-width="1.5"></path>
        <path d="M1127.39 338.49L1127.39 338.49" stroke="#132e65" stroke-width="1.5"></path>
        <path d="M1102.9 493.72L1102.9 493.72" stroke="#132e65" stroke-width="1.5"></path>
        <path d="M1102.9 493.72L1127.39 338.49" stroke="#132e65" stroke-width="1.5"></path>
        <path d="M1256.28 -73.53L1256.28 -73.53" stroke="#132e65" stroke-width="1.5"></path>
        <path d="M1256.28 -73.53L1267.2 105.35" stroke="#132e65" stroke-width="1.5"></path>
        <path d="M1256.28 -73.53L1450.86 -82.93" stroke="#132e65" stroke-width="1.5"></path>
        <path d="M1256.28 -73.53L1108.23 55.3" stroke="#132e65" stroke-width="1.5"></path>
        <path d="M1256.28 -73.53L1436.95 45.48" stroke="#132e65" stroke-width="1.5"></path>
        <path d="M1256.28 -73.53L956.64 -60.44" stroke="#132e65" stroke-width="1.5"></path>
        <path d="M1267.2 105.35L1267.2 105.35" stroke="#132e65" stroke-width="1.5"></path>
        <path d="M1267.2 105.35L1248.89 257.28" stroke="#132e65" stroke-width="1.5"></path>
        <path d="M1267.2 105.35L1436.95 45.48" stroke="#132e65" stroke-width="1.5"></path>
        <path d="M1248.89 257.28L1248.89 257.28" stroke="#132e65" stroke-width="1.5"></path>
        <path d="M1248.89 257.28L1275.36 343.43" stroke="#132e65" stroke-width="1.5"></path>
        <path d="M1248.89 257.28L1107.76 227.73" stroke="#132e65" stroke-width="1.5"></path>
        <path d="M1275.36 343.43L1275.36 343.43" stroke="#132e65" stroke-width="1.5"></path>
        <path d="M1281.21 519.15L1281.21 519.15" stroke="#132e65" stroke-width="1.5"></path>
        <path d="M1281.21 519.15L1431.52 545.42" stroke="#132e65" stroke-width="1.5"></path>
        <path d="M1281.21 519.15L1275.36 343.43" stroke="#132e65" stroke-width="1.5"></path>
        <path d="M1252.96 707.59L1252.96 707.59" stroke="#132e65" stroke-width="1.5"></path>
        <path d="M1252.96 707.59L1281.21 519.15" stroke="#132e65" stroke-width="1.5"></path>
        <path d="M1252.96 707.59L1440.96 644.91" stroke="#132e65" stroke-width="1.5"></path>
        <path d="M1252.96 707.59L1431.52 545.42" stroke="#132e65" stroke-width="1.5"></path>
        <path d="M1252.96 707.59L1102.9 493.72" stroke="#132e65" stroke-width="1.5"></path>
        <path d="M1252.96 707.59L1576.31 642.51" stroke="#132e65" stroke-width="1.5"></path>
        <path d="M1450.86 -82.93L1450.86 -82.93" stroke="#132e65" stroke-width="1.5"></path>
        <path d="M1450.86 -82.93L1564.36 -61.26" stroke="#132e65" stroke-width="1.5"></path>
        <path d="M1450.86 -82.93L1436.95 45.48" stroke="#132e65" stroke-width="1.5"></path>
        <path d="M1450.86 -82.93L1574.29 98.92" stroke="#132e65" stroke-width="1.5"></path>
        <path d="M1450.86 -82.93L1267.2 105.35" stroke="#132e65" stroke-width="1.5"></path>
        <path d="M1450.86 -82.93L1447.56 207.73" stroke="#132e65" stroke-width="1.5"></path>
        <path d="M1436.95 45.48L1436.95 45.48" stroke="#132e65" stroke-width="1.5"></path>
        <path d="M1436.95 45.48L1574.29 98.92" stroke="#132e65" stroke-width="1.5"></path>
        <path d="M1436.95 45.48L1447.56 207.73" stroke="#132e65" stroke-width="1.5"></path>
        <path d="M1436.95 45.48L1564.36 -61.26" stroke="#132e65" stroke-width="1.5"></path>
        <path d="M1447.56 207.73L1447.56 207.73" stroke="#132e65" stroke-width="1.5"></path>
        <path d="M1447.56 207.73L1583.54 210.8" stroke="#132e65" stroke-width="1.5"></path>
        <path d="M1431.52 545.42L1431.52 545.42" stroke="#132e65" stroke-width="1.5"></path>
        <path d="M1431.52 545.42L1440.96 644.91" stroke="#132e65" stroke-width="1.5"></path>
        <path d="M1431.52 545.42L1550.6 518.12" stroke="#132e65" stroke-width="1.5"></path>
        <path d="M1431.52 545.42L1576.31 642.51" stroke="#132e65" stroke-width="1.5"></path>
        <path d="M1440.96 644.91L1440.96 644.91" stroke="#132e65" stroke-width="1.5"></path>
        <path d="M1440.96 644.91L1576.31 642.51" stroke="#132e65" stroke-width="1.5"></path>
        <path d="M1440.96 644.91L1550.6 518.12" stroke="#132e65" stroke-width="1.5"></path>
        <path d="M1440.96 644.91L1281.21 519.15" stroke="#132e65" stroke-width="1.5"></path>
        <path d="M1440.96 644.91L1583.01 348.74" stroke="#132e65" stroke-width="1.5"></path>
        <path d="M1564.36 -61.26L1564.36 -61.26" stroke="#132e65" stroke-width="1.5"></path>
        <path d="M1564.36 -61.26L1574.29 98.92" stroke="#132e65" stroke-width="1.5"></path>
        <path d="M1564.36 -61.26L1583.54 210.8" stroke="#132e65" stroke-width="1.5"></path>
        <path d="M1564.36 -61.26L1447.56 207.73" stroke="#132e65" stroke-width="1.5"></path>
        <path d="M1574.29 98.92L1574.29 98.92" stroke="#132e65" stroke-width="1.5"></path>
        <path d="M1574.29 98.92L1583.54 210.8" stroke="#132e65" stroke-width="1.5"></path>
        <path d="M1574.29 98.92L1447.56 207.73" stroke="#132e65" stroke-width="1.5"></path>
        <path d="M1583.54 210.8L1583.54 210.8" stroke="#132e65" stroke-width="1.5"></path>
        <path d="M1583.54 210.8L1583.01 348.74" stroke="#132e65" stroke-width="1.5"></path>
        <path d="M1583.54 210.8L1436.95 45.48" stroke="#132e65" stroke-width="1.5"></path>
        <path d="M1583.01 348.74L1583.01 348.74" stroke="#132e65" stroke-width="1.5"></path>
        <path d="M1583.01 348.74L1550.6 518.12" stroke="#132e65" stroke-width="1.5"></path>
        <path d="M1583.01 348.74L1447.56 207.73" stroke="#132e65" stroke-width="1.5"></path>
        <path d="M1583.01 348.74L1431.52 545.42" stroke="#132e65" stroke-width="1.5"></path>
        <path d="M1583.01 348.74L1574.29 98.92" stroke="#132e65" stroke-width="1.5"></path>
        <path d="M1550.6 518.12L1550.6 518.12" stroke="#132e65" stroke-width="1.5"></path>
        <path d="M1550.6 518.12L1576.31 642.51" stroke="#132e65" stroke-width="1.5"></path>
        <path d="M1550.6 518.12L1281.21 519.15" stroke="#132e65" stroke-width="1.5"></path>
        <path d="M1576.31 642.51L1576.31 642.51" stroke="#132e65" stroke-width="1.5"></path>
        <path d="M1576.31 642.51L1583.01 348.74" stroke="#132e65" stroke-width="1.5"></path>
        <path d="M1576.31 642.51L1281.21 519.15" stroke="#132e65" stroke-width="1.5"></path>
        <circle r="5" cx="-63.76" cy="347.27" fill="#132e65"></circle>
        <circle r="5" cx="-53.8" cy="535.35" fill="#132e65"></circle>
        <circle r="5" cx="-106.12" cy="663.9" fill="#132e65"></circle>
        <circle r="5" cx="72.45" cy="409.49" fill="#132e65"></circle>
        <circle r="5" cx="107.35" cy="541.42" fill="#132e65"></circle>
        <circle r="5" cx="90.58" cy="658.95" fill="#132e65"></circle>
        <circle r="5" cx="253.88" cy="407.04" fill="#132e65"></circle>
        <circle r="5" cx="261.92" cy="506.95" fill="#132e65"></circle>
        <circle r="5" cx="375.27" cy="401.46" fill="#132e65"></circle>
        <circle r="5" cx="399.13" cy="508.61" fill="#132e65"></circle>
        <circle r="5" cx="383.73" cy="702.44" fill="#132e65"></circle>
        <circle r="5" cx="543.46" cy="343.14" fill="#132e65"></circle>
        <circle r="5" cx="501.69" cy="531.58" fill="#132e65"></circle>
        <circle r="5" cx="501.97" cy="688.07" fill="#132e65"></circle>
        <circle r="5" cx="667.86" cy="238.43" fill="#132e65"></circle>
        <circle r="5" cx="694.69" cy="374.29" fill="#132e65"></circle>
        <circle r="5" cx="667.13" cy="554.04" fill="#132e65"></circle>
        <circle r="5" cx="697.6" cy="646.6" fill="#132e65"></circle>
        <circle r="5" cx="830.18" cy="223.7" fill="#132e65"></circle>
        <circle r="5" cx="800.14" cy="346.84" fill="#132e65"></circle>
        <circle r="5" cx="830.12" cy="544.38" fill="#132e65"></circle>
        <circle r="5" cx="810" cy="684.21" fill="#132e65"></circle>
        <circle r="5" cx="956.64" cy="-60.44" fill="#132e65"></circle>
        <circle r="5" cx="991.73" cy="83.46" fill="#132e65"></circle>
        <circle r="5" cx="1011.19" cy="256.62" fill="#132e65"></circle>
        <circle r="5" cx="981.28" cy="372.4" fill="#132e65"></circle>
        <circle r="5" cx="946.78" cy="528.4" fill="#132e65"></circle>
        <circle r="5" cx="990.63" cy="701.81" fill="#132e65"></circle>
        <circle r="5" cx="1150.5" cy="-89.77" fill="#132e65"></circle>
        <circle r="5" cx="1108.23" cy="55.3" fill="#132e65"></circle>
        <circle r="5" cx="1107.76" cy="227.73" fill="#132e65"></circle>
        <circle r="5" cx="1127.39" cy="338.49" fill="#132e65"></circle>
        <circle r="5" cx="1102.9" cy="493.72" fill="#132e65"></circle>
        <circle r="5" cx="1256.28" cy="-73.53" fill="#132e65"></circle>
        <circle r="5" cx="1267.2" cy="105.35" fill="#132e65"></circle>
        <circle r="5" cx="1248.89" cy="257.28" fill="#132e65"></circle>
        <circle r="5" cx="1275.36" cy="343.43" fill="#132e65"></circle>
        <circle r="5" cx="1281.21" cy="519.15" fill="#132e65"></circle>
        <circle r="5" cx="1252.96" cy="707.59" fill="#132e65"></circle>
        <circle r="5" cx="1450.86" cy="-82.93" fill="#132e65"></circle>
        <circle r="5" cx="1436.95" cy="45.48" fill="#132e65"></circle>
        <circle r="5" cx="1447.56" cy="207.73" fill="#132e65"></circle>
        <circle r="5" cx="1431.52" cy="545.42" fill="#132e65"></circle>
        <circle r="5" cx="1440.96" cy="644.91" fill="#132e65"></circle>
        <circle r="5" cx="1564.36" cy="-61.26" fill="#132e65"></circle>
        <circle r="5" cx="1574.29" cy="98.92" fill="#132e65"></circle>
        <circle r="5" cx="1583.54" cy="210.8" fill="#132e65"></circle>
        <circle r="5" cx="1583.01" cy="348.74" fill="#132e65"></circle>
        <circle r="5" cx="1550.6" cy="518.12" fill="#132e65"></circle>
        <circle r="5" cx="1576.31" cy="642.51" fill="#132e65"></circle>
        <path d="M79.99 550.02L79.99 550.02" stroke="hsl(228.5, 77.2%, 51.5%)" stroke-width="1.5"></path>
        <path d="M79.99 550.02L59.28 639.99" stroke="hsl(228.5, 77.2%, 51.5%)" stroke-width="1.5"></path>
        <path d="M79.99 550.02L196.48 535.13" stroke="hsl(228.5, 77.2%, 51.5%)" stroke-width="1.5"></path>
        <path d="M79.99 550.02L-109.73 515.56" stroke="hsl(228.5, 77.2%, 51.5%)" stroke-width="1.5"></path>
        <path d="M79.99 550.02L-66.31 686.05" stroke="hsl(228.5, 77.2%, 51.5%)" stroke-width="1.5"></path>
        <path d="M79.99 550.02L256.02 653.22" stroke="hsl(228.5, 77.2%, 51.5%)" stroke-width="1.5"></path>
        <path d="M399.01 703.68L399.01 703.68" stroke="hsl(228.5, 77.2%, 51.5%)" stroke-width="1.5"></path>
        <path d="M399.01 703.68L540.37 654.68" stroke="hsl(228.5, 77.2%, 51.5%)" stroke-width="1.5"></path>
        <path d="M399.01 703.68L256.02 653.22" stroke="hsl(228.5, 77.2%, 51.5%)" stroke-width="1.5"></path>
        <path d="M399.01 703.68L366.86 521.39" stroke="hsl(228.5, 77.2%, 51.5%)" stroke-width="1.5"></path>
        <path d="M1251.32 -112.07L1251.32 -112.07" stroke="hsl(228.5, 77.2%, 51.5%)" stroke-width="1.5"></path>
        <path d="M1251.32 -112.07L1238.09 104.5" stroke="hsl(228.5, 77.2%, 51.5%)" stroke-width="1.5"></path>
        <path d="M1251.32 -112.07L1438.75 98.94" stroke="hsl(228.5, 77.2%, 51.5%)" stroke-width="1.5"></path>
        <path d="M1251.32 -112.07L1565.36 -38.38" stroke="hsl(228.5, 77.2%, 51.5%)" stroke-width="1.5"></path>
        <path d="M1251.32 -112.07L1259.78 236.46" stroke="hsl(228.5, 77.2%, 51.5%)" stroke-width="1.5"></path>
        <path d="M1251.32 -112.07L1450.94 214.76" stroke="hsl(228.5, 77.2%, 51.5%)" stroke-width="1.5"></path>
        <path d="M1251.32 -112.07L1161.41 260.69" stroke="hsl(228.5, 77.2%, 51.5%)" stroke-width="1.5"></path>
        <path d="M1259.78 236.46L1259.78 236.46" stroke="hsl(228.5, 77.2%, 51.5%)" stroke-width="1.5"></path>
        <path d="M1259.78 236.46L1161.41 260.69" stroke="hsl(228.5, 77.2%, 51.5%)" stroke-width="1.5"></path>
        <path d="M1259.78 236.46L1238.09 104.5" stroke="hsl(228.5, 77.2%, 51.5%)" stroke-width="1.5"></path>
        <path d="M1259.78 236.46L1259.17 404.13" stroke="hsl(228.5, 77.2%, 51.5%)" stroke-width="1.5"></path>
        <path d="M1259.78 236.46L1450.94 214.76" stroke="hsl(228.5, 77.2%, 51.5%)" stroke-width="1.5"></path>
        <path d="M1259.78 236.46L1457.36 343.36" stroke="hsl(228.5, 77.2%, 51.5%)" stroke-width="1.5"></path>
        <path d="M1457.36 343.36L1457.36 343.36" stroke="hsl(228.5, 77.2%, 51.5%)" stroke-width="1.5"></path>
        <path d="M1457.36 343.36L1565.58 398.91" stroke="hsl(228.5, 77.2%, 51.5%)" stroke-width="1.5"></path>
        <path d="M1457.36 343.36L1450.94 214.76" stroke="hsl(228.5, 77.2%, 51.5%)" stroke-width="1.5"></path>
        <path d="M-109.73 515.56L-109.73 515.56" stroke="hsl(228.5, 77.2%, 51.5%)" stroke-width="1.5"></path>
        <path d="M-109.73 515.56L-66.31 686.05" stroke="hsl(228.5, 77.2%, 51.5%)" stroke-width="1.5"></path>
        <path d="M-66.31 686.05L-66.31 686.05" stroke="hsl(228.5, 77.2%, 51.5%)" stroke-width="1.5"></path>
        <path d="M-66.31 686.05L59.28 639.99" stroke="hsl(228.5, 77.2%, 51.5%)" stroke-width="1.5"></path>
        <path d="M-66.31 686.05L196.48 535.13" stroke="hsl(228.5, 77.2%, 51.5%)" stroke-width="1.5"></path>
        <path d="M59.28 639.99L59.28 639.99" stroke="hsl(228.5, 77.2%, 51.5%)" stroke-width="1.5"></path>
        <path d="M59.28 639.99L196.48 535.13" stroke="hsl(228.5, 77.2%, 51.5%)" stroke-width="1.5"></path>
        <path d="M59.28 639.99L256.02 653.22" stroke="hsl(228.5, 77.2%, 51.5%)" stroke-width="1.5"></path>
        <path d="M59.28 639.99L-109.73 515.56" stroke="hsl(228.5, 77.2%, 51.5%)" stroke-width="1.5"></path>
        <path d="M59.28 639.99L366.86 521.39" stroke="hsl(228.5, 77.2%, 51.5%)" stroke-width="1.5"></path>
        <path d="M196.48 535.13L196.48 535.13" stroke="hsl(228.5, 77.2%, 51.5%)" stroke-width="1.5"></path>
        <path d="M196.48 535.13L256.02 653.22" stroke="hsl(228.5, 77.2%, 51.5%)" stroke-width="1.5"></path>
        <path d="M196.48 535.13L366.86 521.39" stroke="hsl(228.5, 77.2%, 51.5%)" stroke-width="1.5"></path>
        <path d="M196.48 535.13L399.01 703.68" stroke="hsl(228.5, 77.2%, 51.5%)" stroke-width="1.5"></path>
        <path d="M256.02 653.22L256.02 653.22" stroke="hsl(228.5, 77.2%, 51.5%)" stroke-width="1.5"></path>
        <path d="M256.02 653.22L366.86 521.39" stroke="hsl(228.5, 77.2%, 51.5%)" stroke-width="1.5"></path>
        <path d="M256.02 653.22L540.37 654.68" stroke="hsl(228.5, 77.2%, 51.5%)" stroke-width="1.5"></path>
        <path d="M366.86 521.39L366.86 521.39" stroke="hsl(228.5, 77.2%, 51.5%)" stroke-width="1.5"></path>
        <path d="M366.86 521.39L524.7 493.6" stroke="hsl(228.5, 77.2%, 51.5%)" stroke-width="1.5"></path>
        <path d="M524.7 493.6L524.7 493.6" stroke="hsl(228.5, 77.2%, 51.5%)" stroke-width="1.5"></path>
        <path d="M524.7 493.6L644.41 514.2" stroke="hsl(228.5, 77.2%, 51.5%)" stroke-width="1.5"></path>
        <path d="M524.7 493.6L540.37 654.68" stroke="hsl(228.5, 77.2%, 51.5%)" stroke-width="1.5"></path>
        <path d="M524.7 493.6L399.01 703.68" stroke="hsl(228.5, 77.2%, 51.5%)" stroke-width="1.5"></path>
        <path d="M524.7 493.6L679.19 695.57" stroke="hsl(228.5, 77.2%, 51.5%)" stroke-width="1.5"></path>
        <path d="M524.7 493.6L830.81 496.85" stroke="hsl(228.5, 77.2%, 51.5%)" stroke-width="1.5"></path>
        <path d="M540.37 654.68L540.37 654.68" stroke="hsl(228.5, 77.2%, 51.5%)" stroke-width="1.5"></path>
        <path d="M540.37 654.68L679.19 695.57" stroke="hsl(228.5, 77.2%, 51.5%)" stroke-width="1.5"></path>
        <path d="M540.37 654.68L644.41 514.2" stroke="hsl(228.5, 77.2%, 51.5%)" stroke-width="1.5"></path>
        <path d="M540.37 654.68L366.86 521.39" stroke="hsl(228.5, 77.2%, 51.5%)" stroke-width="1.5"></path>
        <path d="M644.41 514.2L644.41 514.2" stroke="hsl(228.5, 77.2%, 51.5%)" stroke-width="1.5"></path>
        <path d="M679.19 695.57L679.19 695.57" stroke="hsl(228.5, 77.2%, 51.5%)" stroke-width="1.5"></path>
        <path d="M679.19 695.57L822.38 650.89" stroke="hsl(228.5, 77.2%, 51.5%)" stroke-width="1.5"></path>
        <path d="M679.19 695.57L644.41 514.2" stroke="hsl(228.5, 77.2%, 51.5%)" stroke-width="1.5"></path>
        <path d="M679.19 695.57L830.81 496.85" stroke="hsl(228.5, 77.2%, 51.5%)" stroke-width="1.5"></path>
        <path d="M679.19 695.57L399.01 703.68" stroke="hsl(228.5, 77.2%, 51.5%)" stroke-width="1.5"></path>
        <path d="M830.81 496.85L830.81 496.85" stroke="hsl(228.5, 77.2%, 51.5%)" stroke-width="1.5"></path>
        <path d="M830.81 496.85L822.38 650.89" stroke="hsl(228.5, 77.2%, 51.5%)" stroke-width="1.5"></path>
        <path d="M830.81 496.85L644.41 514.2" stroke="hsl(228.5, 77.2%, 51.5%)" stroke-width="1.5"></path>
        <path d="M830.81 496.85L966.27 348.1" stroke="hsl(228.5, 77.2%, 51.5%)" stroke-width="1.5"></path>
        <path d="M822.38 650.89L822.38 650.89" stroke="hsl(228.5, 77.2%, 51.5%)" stroke-width="1.5"></path>
        <path d="M822.38 650.89L644.41 514.2" stroke="hsl(228.5, 77.2%, 51.5%)" stroke-width="1.5"></path>
        <path d="M822.38 650.89L540.37 654.68" stroke="hsl(228.5, 77.2%, 51.5%)" stroke-width="1.5"></path>
        <path d="M822.38 650.89L1116.96 704.49" stroke="hsl(228.5, 77.2%, 51.5%)" stroke-width="1.5"></path>
        <path d="M966.27 348.1L966.27 348.1" stroke="hsl(228.5, 77.2%, 51.5%)" stroke-width="1.5"></path>
        <path d="M966.27 348.1L1161.41 260.69" stroke="hsl(228.5, 77.2%, 51.5%)" stroke-width="1.5"></path>
        <path d="M966.27 348.1L1120.39 541.14" stroke="hsl(228.5, 77.2%, 51.5%)" stroke-width="1.5"></path>
        <path d="M966.27 348.1L1259.17 404.13" stroke="hsl(228.5, 77.2%, 51.5%)" stroke-width="1.5"></path>
        <path d="M966.27 348.1L1259.78 236.46" stroke="hsl(228.5, 77.2%, 51.5%)" stroke-width="1.5"></path>
        <path d="M966.27 348.1L822.38 650.89" stroke="hsl(228.5, 77.2%, 51.5%)" stroke-width="1.5"></path>
        <path d="M1161.41 260.69L1161.41 260.69" stroke="hsl(228.5, 77.2%, 51.5%)" stroke-width="1.5"></path>
        <path d="M1161.41 260.69L1259.17 404.13" stroke="hsl(228.5, 77.2%, 51.5%)" stroke-width="1.5"></path>
        <path d="M1161.41 260.69L1238.09 104.5" stroke="hsl(228.5, 77.2%, 51.5%)" stroke-width="1.5"></path>
        <path d="M1161.41 260.69L1120.39 541.14" stroke="hsl(228.5, 77.2%, 51.5%)" stroke-width="1.5"></path>
        <path d="M1120.39 541.14L1120.39 541.14" stroke="hsl(228.5, 77.2%, 51.5%)" stroke-width="1.5"></path>
        <path d="M1120.39 541.14L1280.02 553.18" stroke="hsl(228.5, 77.2%, 51.5%)" stroke-width="1.5"></path>
        <path d="M1120.39 541.14L1116.96 704.49" stroke="hsl(228.5, 77.2%, 51.5%)" stroke-width="1.5"></path>
        <path d="M1120.39 541.14L1259.17 404.13" stroke="hsl(228.5, 77.2%, 51.5%)" stroke-width="1.5"></path>
        <path d="M1120.39 541.14L1283.58 703.01" stroke="hsl(228.5, 77.2%, 51.5%)" stroke-width="1.5"></path>
        <path d="M1116.96 704.49L1116.96 704.49" stroke="hsl(228.5, 77.2%, 51.5%)" stroke-width="1.5"></path>
        <path d="M1116.96 704.49L1283.58 703.01" stroke="hsl(228.5, 77.2%, 51.5%)" stroke-width="1.5"></path>
        <path d="M1238.09 104.5L1238.09 104.5" stroke="hsl(228.5, 77.2%, 51.5%)" stroke-width="1.5"></path>
        <path d="M1259.17 404.13L1259.17 404.13" stroke="hsl(228.5, 77.2%, 51.5%)" stroke-width="1.5"></path>
        <path d="M1259.17 404.13L1280.02 553.18" stroke="hsl(228.5, 77.2%, 51.5%)" stroke-width="1.5"></path>
        <path d="M1259.17 404.13L1457.36 343.36" stroke="hsl(228.5, 77.2%, 51.5%)" stroke-width="1.5"></path>
        <path d="M1259.17 404.13L1442.62 547.92" stroke="hsl(228.5, 77.2%, 51.5%)" stroke-width="1.5"></path>
        <path d="M1280.02 553.18L1280.02 553.18" stroke="hsl(228.5, 77.2%, 51.5%)" stroke-width="1.5"></path>
        <path d="M1280.02 553.18L1283.58 703.01" stroke="hsl(228.5, 77.2%, 51.5%)" stroke-width="1.5"></path>
        <path d="M1280.02 553.18L1442.62 547.92" stroke="hsl(228.5, 77.2%, 51.5%)" stroke-width="1.5"></path>
        <path d="M1283.58 703.01L1283.58 703.01" stroke="hsl(228.5, 77.2%, 51.5%)" stroke-width="1.5"></path>
        <path d="M1283.58 703.01L1460.07 653.92" stroke="hsl(228.5, 77.2%, 51.5%)" stroke-width="1.5"></path>
        <path d="M1283.58 703.01L1442.62 547.92" stroke="hsl(228.5, 77.2%, 51.5%)" stroke-width="1.5"></path>
        <path d="M1283.58 703.01L1259.17 404.13" stroke="hsl(228.5, 77.2%, 51.5%)" stroke-width="1.5"></path>
        <path d="M1438.75 98.94L1438.75 98.94" stroke="hsl(228.5, 77.2%, 51.5%)" stroke-width="1.5"></path>
        <path d="M1438.75 98.94L1450.94 214.76" stroke="hsl(228.5, 77.2%, 51.5%)" stroke-width="1.5"></path>
        <path d="M1438.75 98.94L1589.9 93.75" stroke="hsl(228.5, 77.2%, 51.5%)" stroke-width="1.5"></path>
        <path d="M1438.75 98.94L1562.22 216.31" stroke="hsl(228.5, 77.2%, 51.5%)" stroke-width="1.5"></path>
        <path d="M1438.75 98.94L1565.36 -38.38" stroke="hsl(228.5, 77.2%, 51.5%)" stroke-width="1.5"></path>
        <path d="M1438.75 98.94L1238.09 104.5" stroke="hsl(228.5, 77.2%, 51.5%)" stroke-width="1.5"></path>
        <path d="M1438.75 98.94L1259.78 236.46" stroke="hsl(228.5, 77.2%, 51.5%)" stroke-width="1.5"></path>
        <path d="M1450.94 214.76L1450.94 214.76" stroke="hsl(228.5, 77.2%, 51.5%)" stroke-width="1.5"></path>
        <path d="M1450.94 214.76L1562.22 216.31" stroke="hsl(228.5, 77.2%, 51.5%)" stroke-width="1.5"></path>
        <path d="M1442.62 547.92L1442.62 547.92" stroke="hsl(228.5, 77.2%, 51.5%)" stroke-width="1.5"></path>
        <path d="M1442.62 547.92L1460.07 653.92" stroke="hsl(228.5, 77.2%, 51.5%)" stroke-width="1.5"></path>
        <path d="M1442.62 547.92L1579.6 543.65" stroke="hsl(228.5, 77.2%, 51.5%)" stroke-width="1.5"></path>
        <path d="M1460.07 653.92L1460.07 653.92" stroke="hsl(228.5, 77.2%, 51.5%)" stroke-width="1.5"></path>
        <path d="M1460.07 653.92L1588.12 693.31" stroke="hsl(228.5, 77.2%, 51.5%)" stroke-width="1.5"></path>
        <path d="M1460.07 653.92L1579.6 543.65" stroke="hsl(228.5, 77.2%, 51.5%)" stroke-width="1.5"></path>
        <path d="M1460.07 653.92L1280.02 553.18" stroke="hsl(228.5, 77.2%, 51.5%)" stroke-width="1.5"></path>
        <path d="M1460.07 653.92L1565.58 398.91" stroke="hsl(228.5, 77.2%, 51.5%)" stroke-width="1.5"></path>
        <path d="M1565.36 -38.38L1565.36 -38.38" stroke="hsl(228.5, 77.2%, 51.5%)" stroke-width="1.5"></path>
        <path d="M1565.36 -38.38L1589.9 93.75" stroke="hsl(228.5, 77.2%, 51.5%)" stroke-width="1.5"></path>
        <path d="M1565.36 -38.38L1562.22 216.31" stroke="hsl(228.5, 77.2%, 51.5%)" stroke-width="1.5"></path>
        <path d="M1589.9 93.75L1589.9 93.75" stroke="hsl(228.5, 77.2%, 51.5%)" stroke-width="1.5"></path>
        <path d="M1589.9 93.75L1562.22 216.31" stroke="hsl(228.5, 77.2%, 51.5%)" stroke-width="1.5"></path>
        <path d="M1589.9 93.75L1450.94 214.76" stroke="hsl(228.5, 77.2%, 51.5%)" stroke-width="1.5"></path>
        <path d="M1589.9 93.75L1457.36 343.36" stroke="hsl(228.5, 77.2%, 51.5%)" stroke-width="1.5"></path>
        <path d="M1589.9 93.75L1565.58 398.91" stroke="hsl(228.5, 77.2%, 51.5%)" stroke-width="1.5"></path>
        <path d="M1562.22 216.31L1562.22 216.31" stroke="hsl(228.5, 77.2%, 51.5%)" stroke-width="1.5"></path>
        <path d="M1565.58 398.91L1565.58 398.91" stroke="hsl(228.5, 77.2%, 51.5%)" stroke-width="1.5"></path>
        <path d="M1565.58 398.91L1579.6 543.65" stroke="hsl(228.5, 77.2%, 51.5%)" stroke-width="1.5"></path>
        <path d="M1579.6 543.65L1579.6 543.65" stroke="hsl(228.5, 77.2%, 51.5%)" stroke-width="1.5"></path>
        <path d="M1579.6 543.65L1588.12 693.31" stroke="hsl(228.5, 77.2%, 51.5%)" stroke-width="1.5"></path>
        <path d="M1588.12 693.31L1588.12 693.31" stroke="hsl(228.5, 77.2%, 51.5%)" stroke-width="1.5"></path>
        <path d="M1588.12 693.31L1442.62 547.92" stroke="hsl(228.5, 77.2%, 51.5%)" stroke-width="1.5"></path>
        <path d="M1588.12 693.31L1565.58 398.91" stroke="hsl(228.5, 77.2%, 51.5%)" stroke-width="1.5"></path>
        <path d="M1588.12 693.31L1283.58 703.01" stroke="hsl(228.5, 77.2%, 51.5%)" stroke-width="1.5"></path>
        <path d="M1588.12 693.31L1280.02 553.18" stroke="hsl(228.5, 77.2%, 51.5%)" stroke-width="1.5"></path>
        <circle r="25" cx="79.99" cy="550.02" fill="url(&quot;#SvgjsRadialGradient1009&quot;)"></circle>
        <circle r="25" cx="399.01" cy="703.68" fill="url(&quot;#SvgjsRadialGradient1009&quot;)"></circle>
        <circle r="25" cx="1251.32" cy="-112.07" fill="url(&quot;#SvgjsRadialGradient1009&quot;)"></circle>
        <circle r="25" cx="1259.78" cy="236.46" fill="url(&quot;#SvgjsRadialGradient1009&quot;)"></circle>
        <circle r="25" cx="1457.36" cy="343.36" fill="url(&quot;#SvgjsRadialGradient1009&quot;)"></circle>
        <circle r="5" cx="-109.73" cy="515.56" fill="#8b9ad9"></circle>
        <circle r="5" cx="-66.31" cy="686.05" fill="#8b9ad9"></circle>
        <circle r="5" cx="59.28" cy="639.99" fill="#8b9ad9"></circle>
        <circle r="5" cx="196.48" cy="535.13" fill="#8b9ad9"></circle>
        <circle r="5" cx="256.02" cy="653.22" fill="#8b9ad9"></circle>
        <circle r="5" cx="366.86" cy="521.39" fill="#8b9ad9"></circle>
        <circle r="5" cx="524.7" cy="493.6" fill="#8b9ad9"></circle>
        <circle r="5" cx="540.37" cy="654.68" fill="#8b9ad9"></circle>
        <circle r="5" cx="644.41" cy="514.2" fill="#8b9ad9"></circle>
        <circle r="5" cx="679.19" cy="695.57" fill="#8b9ad9"></circle>
        <circle r="5" cx="830.81" cy="496.85" fill="#8b9ad9"></circle>
        <circle r="5" cx="822.38" cy="650.89" fill="#8b9ad9"></circle>
        <circle r="5" cx="966.27" cy="348.1" fill="#8b9ad9"></circle>
        <circle r="5" cx="1161.41" cy="260.69" fill="#8b9ad9"></circle>
        <circle r="5" cx="1120.39" cy="541.14" fill="#8b9ad9"></circle>
        <circle r="5" cx="1116.96" cy="704.49" fill="#8b9ad9"></circle>
        <circle r="5" cx="1238.09" cy="104.5" fill="#8b9ad9"></circle>
        <circle r="5" cx="1259.17" cy="404.13" fill="#8b9ad9"></circle>
        <circle r="5" cx="1280.02" cy="553.18" fill="#8b9ad9"></circle>
        <circle r="5" cx="1283.58" cy="703.01" fill="#8b9ad9"></circle>
        <circle r="5" cx="1438.75" cy="98.94" fill="#8b9ad9"></circle>
        <circle r="5" cx="1450.94" cy="214.76" fill="#8b9ad9"></circle>
        <circle r="5" cx="1442.62" cy="547.92" fill="#8b9ad9"></circle>
        <circle r="5" cx="1460.07" cy="653.92" fill="#8b9ad9"></circle>
        <circle r="5" cx="1565.36" cy="-38.38" fill="#8b9ad9"></circle>
        <circle r="5" cx="1589.9" cy="93.75" fill="#8b9ad9"></circle>
        <circle r="5" cx="1562.22" cy="216.31" fill="#8b9ad9"></circle>
        <circle r="5" cx="1565.58" cy="398.91" fill="#8b9ad9"></circle>
        <circle r="5" cx="1579.6" cy="543.65" fill="#8b9ad9"></circle>
        <circle r="5" cx="1588.12" cy="693.31" fill="#8b9ad9"></circle>
    </g>
    <defs>
        <mask id="SvgjsMask1008">
            <rect width="1440" height="560" fill="#ffffff"></rect>
        </mask>
        <radialGradient id="SvgjsRadialGradient1009">
            <stop stop-color="#ffffff" offset="0.1"></stop>
            <stop stop-color="#1735b3" offset="0.2"></stop>
            <stop stop-color="rgba(23, 53, 179, 0)" offset="1"></stop>
        </radialGradient>
    </defs>
</svg>